<svg width="22" height="22" viewBox="0 0 22 22" fill="none" xmlns="http://www.w3.org/2000/svg">
<path fill-rule="evenodd" clip-rule="evenodd" d="M20.288 0.294912C20.918 -0.335073 21.9951 0.111092 21.9951 1.00201L21.9951 15.3835C21.9951 15.3838 21.9949 15.384 21.9946 15.384C21.9943 15.384 21.9941 15.3842 21.9941 15.3845C21.9948 15.4237 21.9951 15.4629 21.9951 15.5023C21.9951 19.0913 19.0857 22.0009 15.4967 22.0009C15.4574 22.0009 15.4182 22.0006 15.3791 21.9999C15.3789 21.9999 15.3786 22.0001 15.3787 22.0004C15.3787 22.0007 15.3785 22.0009 15.3782 22.0009L0.997216 22.0009C0.10632 22.0009 -0.33985 20.9238 0.290093 20.2938L6.72646 13.8572C6.72648 13.8572 6.72647 13.8571 6.72643 13.8571C6.72639 13.8571 6.72638 13.8571 6.7264 13.8571L20.288 0.294912Z" fill="#ED3A3A"/>
</svg>
