<svg width="26" height="26" viewBox="0 0 26 26" fill="none" xmlns="http://www.w3.org/2000/svg">
<rect width="26" height="26" rx="8" fill="white"/>
<path fill-rule="evenodd" clip-rule="evenodd" d="M13.0004 6.09058C13.5527 6.09058 14.0004 6.53829 14.0004 7.09058V11.1783L17.4638 8.97434C17.9298 8.67783 18.5479 8.81518 18.8444 9.28113C19.1409 9.74707 19.0035 10.3651 18.5376 10.6617L14.863 13L18.5376 15.3383C19.0035 15.6348 19.1409 16.2529 18.8444 16.7189C18.5479 17.1848 17.9298 17.3222 17.4638 17.0256L14.0004 14.8216V18.9094C14.0004 19.4617 13.5527 19.9094 13.0004 19.9094C12.4481 19.9094 12.0004 19.4617 12.0004 18.9094V14.8217L8.53701 17.0256C8.07106 17.3222 7.45298 17.1848 7.15647 16.7189C6.85996 16.2529 6.99731 15.6348 7.46325 15.3383L11.1378 13L7.46325 10.6617C6.99731 10.3651 6.85996 9.74707 7.15647 9.28113C7.45298 8.81518 8.07106 8.67783 8.53701 8.97434L12.0004 11.1783V7.09058C12.0004 6.53829 12.4481 6.09058 13.0004 6.09058Z" fill="#ED3A3A"/>
</svg>
