<svg xmlns="http://www.w3.org/2000/svg">
    <symbol id="inst" viewBox="0 0 27 26" fill="none" xmlns="http://www.w3.org/2000/svg">
        <path d="M13.3333 4.80723C15.9839 4.80723 16.3454 4.80723 17.4297 4.80723C18.3936 4.80723 18.8755 5.04819 19.237 5.16868C19.7189 5.40964 20.0803 5.53012 20.4418 5.89157C20.8032 6.25301 21.0442 6.61446 21.1647 7.09639C21.2852 7.45783 21.4056 7.93976 21.5261 8.90362C21.5261 9.98795 21.5261 10.2289 21.5261 13C21.5261 15.7711 21.5261 16.0121 21.5261 17.0964C21.5261 18.0602 21.2852 18.5422 21.1647 18.9036C20.9237 19.3855 20.8032 19.747 20.4418 20.1084C20.0803 20.4699 19.7189 20.7108 19.237 20.8313C18.8755 20.9518 18.3936 21.0723 17.4297 21.1928C16.3454 21.1928 16.1044 21.1928 13.3333 21.1928C10.5623 21.1928 10.3213 21.1928 9.23696 21.1928C8.2731 21.1928 7.79118 20.9518 7.42973 20.8313C6.9478 20.5904 6.58636 20.4699 6.22491 20.1084C5.86347 19.747 5.6225 19.3855 5.50202 18.9036C5.38154 18.5422 5.26105 18.0602 5.14057 17.0964C5.14057 16.0121 5.14057 15.7711 5.14057 13C5.14057 10.2289 5.14057 9.98795 5.14057 8.90362C5.14057 7.93976 5.38154 7.45783 5.50202 7.09639C5.74298 6.61446 5.86347 6.25301 6.22491 5.89157C6.58636 5.53012 6.9478 5.28916 7.42973 5.16868C7.79118 5.04819 8.2731 4.92771 9.23696 4.80723C10.3213 4.80723 10.6827 4.80723 13.3333 4.80723ZM13.3333 3C10.5623 3 10.3213 3 9.23696 3C8.15262 3 7.42973 3.24096 6.82732 3.48193C6.22491 3.72289 5.6225 4.08434 5.02009 4.68675C4.41768 5.28916 4.17672 5.77109 3.81527 6.49398C3.57431 7.09639 3.45383 7.81928 3.33334 8.90362C3.33334 9.98795 3.33334 10.3494 3.33334 13C3.33334 15.7711 3.33334 16.0121 3.33334 17.0964C3.33334 18.1807 3.57431 18.9036 3.81527 19.506C4.05624 20.1084 4.41768 20.7108 5.02009 21.3133C5.6225 21.9157 6.10443 22.1566 6.82732 22.5181C7.42973 22.759 8.15262 22.8795 9.23696 23C10.3213 23 10.6827 23 13.3333 23C15.9839 23 16.3454 23 17.4297 23C18.5141 23 19.237 22.759 19.8394 22.5181C20.4418 22.2771 21.0442 21.9157 21.6466 21.3133C22.249 20.7108 22.49 20.2289 22.8514 19.506C23.0924 18.9036 23.2129 18.1807 23.3333 17.0964C23.3333 16.0121 23.3333 15.6506 23.3333 13C23.3333 10.3494 23.3333 9.98795 23.3333 8.90362C23.3333 7.81928 23.0924 7.09639 22.8514 6.49398C22.6105 5.89157 22.249 5.28916 21.6466 4.68675C21.0442 4.08434 20.5623 3.84337 19.8394 3.48193C19.237 3.24096 18.5141 3.12048 17.4297 3C16.3454 3 16.1044 3 13.3333 3Z" fill="currentColor"/>
        <path d="M13.3333 7.81928C10.4418 7.81928 8.15262 10.1084 8.15262 13C8.15262 15.8916 10.4418 18.1807 13.3333 18.1807C16.2249 18.1807 18.5141 15.8916 18.5141 13C18.5141 10.1084 16.2249 7.81928 13.3333 7.81928ZM13.3333 16.3735C11.5261 16.3735 9.95985 14.9277 9.95985 13C9.95985 11.1928 11.4056 9.62651 13.3333 9.62651C15.1406 9.62651 16.7068 11.0723 16.7068 13C16.7068 14.8072 15.1406 16.3735 13.3333 16.3735Z" fill="currentColor"/>
        <path d="M18.6346 8.90362C19.3 8.90362 19.8394 8.3642 19.8394 7.6988C19.8394 7.03339 19.3 6.49398 18.6346 6.49398C17.9691 6.49398 17.4297 7.03339 17.4297 7.6988C17.4297 8.3642 17.9691 8.90362 18.6346 8.90362Z" fill="currentColor"/>
    </symbol>


    <symbol id="fb" viewBox="0 0 27 27" fill="none" xmlns="http://www.w3.org/2000/svg">
        <path d="M14.9904 14.3648H18.7126L19.297 10.5605H14.9897V8.48134C14.9897 6.90099 15.5029 5.49962 16.9723 5.49962H19.3333V2.17974C18.9185 2.12338 18.0411 2 16.3833 2C12.9215 2 10.892 3.8393 10.892 8.0297V10.5605H7.33334V14.3648H10.892V24.821C11.5968 24.9276 12.3106 25 13.0434 25C13.7058 25 14.3523 24.9391 14.9904 24.8522V14.3648Z" fill="currentColor"/>
    </symbol>


    <symbol id="in" viewBox="0 0 27 27" fill="none" xmlns="http://www.w3.org/2000/svg">
        <path d="M21.3333 14.7444V20.2601H18.1046V15.0807C18.1046 13.8027 17.6338 12.9283 16.4903 12.9283C15.6159 12.9283 15.0777 13.5336 14.8759 14.0718C14.8087 14.2735 14.7414 14.5426 14.7414 14.8789V20.2601H11.5127C11.5127 20.2601 11.58 11.5157 11.5127 10.6413H14.7414V11.9865C15.145 11.3139 15.9522 10.3722 17.6338 10.3722C19.719 10.3722 21.3333 11.7848 21.3333 14.7444ZM8.14949 6C7.07325 6 6.33334 6.73991 6.33334 7.68161C6.33334 8.62332 7.00599 9.36323 8.08222 9.36323C9.22572 9.36323 9.89837 8.62332 9.89837 7.68161C9.96563 6.67265 9.29298 6 8.14949 6ZM6.53514 20.2601H9.76384V10.6413H6.53514V20.2601Z" fill="currentColor"/>
    </symbol>
 
</svg>  