<svg width="29" height="28" viewBox="0 0 29 28" fill="none" xmlns="http://www.w3.org/2000/svg">
<path fill-rule="evenodd" clip-rule="evenodd" d="M5.33309 4.95801C3.56118 4.95801 2.12476 6.39443 2.12476 8.16634V19.833C2.12476 21.6049 3.56118 23.0413 5.33309 23.0413H23.9998C25.7717 23.0413 27.2081 21.6049 27.2081 19.833V8.16634C27.2081 6.39443 25.7717 4.95801 23.9998 4.95801H5.33309ZM22.9115 14.5842C23.235 14.2252 23.2062 13.672 22.8471 13.3484C22.4881 13.025 21.9348 13.0539 21.6114 13.4128L21.5997 13.4258C21.2762 13.7849 21.305 14.3381 21.6641 14.6615C22.0231 14.985 22.5764 14.9562 22.8998 14.5971L22.9115 14.5842ZM7.68043 13.3484C8.03946 13.672 8.06829 14.2252 7.74483 14.5842L7.73317 14.5971C7.40971 14.9562 6.85644 14.985 6.49741 14.6615C6.13838 14.3381 6.10955 13.7849 6.43301 13.4258L6.44468 13.4128C6.76814 13.0539 7.3214 13.025 7.68043 13.3484ZM14.6664 9.62467C12.2501 9.62467 10.2914 11.5834 10.2914 13.9997C10.2914 16.416 12.2501 18.3747 14.6664 18.3747C17.0827 18.3747 19.0414 16.416 19.0414 13.9997C19.0414 11.5834 17.0827 9.62467 14.6664 9.62467Z" fill="white" fill-opacity="0.6"/>
</svg>
