<svg width="29" height="28" viewBox="0 0 29 28" fill="none" xmlns="http://www.w3.org/2000/svg">
<path fill-rule="evenodd" clip-rule="evenodd" d="M24.5419 19.5C24.5419 19.5569 24.5364 19.6127 24.526 19.6666C24.5364 19.7206 24.5419 19.7763 24.5419 19.8333C24.5419 20.3166 24.1501 20.7083 23.6669 20.7083H7.33358C6.52816 20.7083 5.87524 21.3612 5.87524 22.1667C5.87524 22.9721 6.52816 23.625 7.33358 23.625H23.6669C24.1501 23.625 24.5419 24.0168 24.5419 24.5C24.5419 24.9832 24.1501 25.375 23.6669 25.375H7.33358C5.56167 25.375 4.12524 23.9386 4.12524 22.1667V5.83333C4.12524 4.06142 5.56167 2.625 7.33358 2.625H22.9669C23.8368 2.625 24.5419 3.33016 24.5419 4.2V19.5ZM10.8336 7.29167C10.3503 7.29167 9.95858 7.68342 9.95858 8.16667C9.95858 8.64991 10.3503 9.04167 10.8336 9.04167H17.8336C18.3168 9.04167 18.7086 8.64991 18.7086 8.16667C18.7086 7.68342 18.3168 7.29167 17.8336 7.29167H10.8336Z" fill="white" fill-opacity="0.6"/>
</svg>
