<svg width="28" height="28" viewBox="0 0 28 28" fill="none" xmlns="http://www.w3.org/2000/svg">
<path fill-rule="evenodd" clip-rule="evenodd" d="M13.9997 1.45801C7.0731 1.45801 1.45801 7.0731 1.45801 13.9997C1.45801 16.1654 2.00766 18.205 2.97556 19.9844L2.05612 24.9228C2.00333 25.2064 2.09367 25.4978 2.29762 25.7017C2.50157 25.9056 2.79293 25.996 3.07649 25.9432L8.01486 25.0239C9.79426 25.9916 11.834 26.5413 13.9997 26.5413C20.9262 26.5413 26.5413 20.9262 26.5413 13.9997C26.5413 7.07309 20.9262 1.45801 13.9997 1.45801ZM19.285 12.285C19.6267 11.9433 19.6267 11.3893 19.285 11.0476C18.9433 10.7059 18.3894 10.7059 18.0477 11.0476L12.833 16.2622L9.95173 13.381C9.61002 13.0393 9.05599 13.0393 8.71429 13.381C8.37258 13.7227 8.37258 14.2766 8.71429 14.6184L12.2143 18.1184C12.556 18.4601 13.11 18.4601 13.4517 18.1184L19.285 12.285Z" fill="white" fill-opacity="0.6"/>
</svg>
