<svg width="28" height="28" viewBox="0 0 28 28" fill="none" xmlns="http://www.w3.org/2000/svg">
<path d="M0 8C0 3.58172 3.58172 0 8 0H20C24.4183 0 28 3.58172 28 8V20C28 24.4183 24.4183 28 20 28H8C3.58172 28 0 24.4183 0 20V8Z" fill="#232323"/>
<path d="M17.3333 10H10.6667C10.2667 10 10 10.2667 10 10.6667C10 11.0667 10.2667 11.3333 10.6667 11.3333H15.7333L10.2 16.8667C9.93333 17.1333 9.93333 17.5333 10.2 17.8C10.4667 18.0667 10.8667 18.0667 11.1333 17.8L16.6667 12.2667V17.3333C16.6667 17.7333 16.9333 18 17.3333 18C17.7333 18 18 17.7333 18 17.3333V10.6667C18 10.2667 17.7333 10 17.3333 10Z" fill="white"/>
</svg>
