<svg width="21" height="20" viewBox="0 0 21 20" fill="none" xmlns="http://www.w3.org/2000/svg">
<path d="M10.3333 1.80723C12.9839 1.80723 13.3454 1.80723 14.4297 1.80723C15.3936 1.80723 15.8755 2.04819 16.237 2.16868C16.7189 2.40964 17.0803 2.53012 17.4418 2.89157C17.8032 3.25301 18.0442 3.61446 18.1647 4.09639C18.2852 4.45783 18.4056 4.93976 18.5261 5.90362C18.5261 6.98795 18.5261 7.22892 18.5261 10C18.5261 12.7711 18.5261 13.0121 18.5261 14.0964C18.5261 15.0602 18.2852 15.5422 18.1647 15.9036C17.9237 16.3855 17.8032 16.747 17.4418 17.1084C17.0803 17.4699 16.7189 17.7108 16.237 17.8313C15.8755 17.9518 15.3936 18.0723 14.4297 18.1928C13.3454 18.1928 13.1044 18.1928 10.3333 18.1928C7.56226 18.1928 7.3213 18.1928 6.23696 18.1928C5.2731 18.1928 4.79118 17.9518 4.42973 17.8313C3.9478 17.5904 3.58636 17.4699 3.22491 17.1084C2.86347 16.747 2.6225 16.3855 2.50202 15.9036C2.38154 15.5422 2.26105 15.0602 2.14057 14.0964C2.14057 13.0121 2.14057 12.7711 2.14057 10C2.14057 7.22892 2.14057 6.98795 2.14057 5.90362C2.14057 4.93976 2.38154 4.45783 2.50202 4.09639C2.74298 3.61446 2.86347 3.25301 3.22491 2.89157C3.58636 2.53012 3.9478 2.28916 4.42973 2.16868C4.79118 2.04819 5.2731 1.92771 6.23696 1.80723C7.3213 1.80723 7.68274 1.80723 10.3333 1.80723ZM10.3333 0C7.56226 0 7.3213 0 6.23696 0C5.15262 0 4.42973 0.240965 3.82732 0.481928C3.22491 0.722892 2.6225 1.08434 2.02009 1.68675C1.41768 2.28916 1.17672 2.77109 0.815272 3.49398C0.574308 4.09639 0.453825 4.81928 0.333344 5.90362C0.333344 6.98795 0.333344 7.3494 0.333344 10C0.333344 12.7711 0.333344 13.0121 0.333344 14.0964C0.333344 15.1807 0.574308 15.9036 0.815272 16.506C1.05624 17.1084 1.41768 17.7108 2.02009 18.3133C2.6225 18.9157 3.10443 19.1566 3.82732 19.5181C4.42973 19.759 5.15262 19.8795 6.23696 20C7.3213 20 7.68274 20 10.3333 20C12.9839 20 13.3454 20 14.4297 20C15.5141 20 16.237 19.759 16.8394 19.5181C17.4418 19.2771 18.0442 18.9157 18.6466 18.3133C19.249 17.7108 19.49 17.2289 19.8514 16.506C20.0924 15.9036 20.2129 15.1807 20.3333 14.0964C20.3333 13.0121 20.3333 12.6506 20.3333 10C20.3333 7.3494 20.3333 6.98795 20.3333 5.90362C20.3333 4.81928 20.0924 4.09639 19.8514 3.49398C19.6105 2.89157 19.249 2.28916 18.6466 1.68675C18.0442 1.08434 17.5623 0.843374 16.8394 0.481928C16.237 0.240965 15.5141 0.120482 14.4297 0C13.3454 0 13.1044 0 10.3333 0Z" fill="white"/>
<path d="M10.3333 4.81928C7.44178 4.81928 5.15262 7.10843 5.15262 10C5.15262 12.8916 7.44178 15.1807 10.3333 15.1807C13.2249 15.1807 15.5141 12.8916 15.5141 10C15.5141 7.10843 13.2249 4.81928 10.3333 4.81928ZM10.3333 13.3735C8.52612 13.3735 6.95985 11.9277 6.95985 10C6.95985 8.19277 8.40563 6.62651 10.3333 6.62651C12.1406 6.62651 13.7068 8.07229 13.7068 10C13.7068 11.8072 12.1406 13.3735 10.3333 13.3735Z" fill="white"/>
<path d="M15.6346 5.90362C16.3 5.90362 16.8394 5.3642 16.8394 4.6988C16.8394 4.03339 16.3 3.49398 15.6346 3.49398C14.9691 3.49398 14.4297 4.03339 14.4297 4.6988C14.4297 5.3642 14.9691 5.90362 15.6346 5.90362Z" fill="white"/>
</svg>
